<svg xmlns="http://www.w3.org/2000/svg" viewBox="0 0 60 40" role="img" aria-label="Green Taiwan island flag">
  <rect width="60" height="40" rx="2" fill="#f8fff8"/>
  <rect x="0.75" y="0.75" width="58.5" height="38.5" rx="1.25" fill="none" stroke="#128a4b" stroke-width="1.5"/>
  <path fill="#0aa35b" d="M35.2 3.8c-1.8.7-3 2.2-4.1 4.5-.8 1.8-1.3 3.8-2.5 5.3-1.4 1.7-3.8 2.2-4.9 4.2-.8 1.5-.2 3.4-.7 5-.6 2.1-2.7 3.3-3.8 5.1-.9 1.5-1.2 3.6-.1 5 1.2 1.5 3.6 1.4 5.2.6 2.1-1.1 3.4-3.4 5.3-4.8 1.6-1.2 3.8-1.8 4.8-3.6.8-1.4.4-3.2 1.1-4.7.8-1.8 2.7-2.8 3.6-4.6.8-1.5.8-3.3.6-5-.2-1.8-.4-3.9-1.7-5.2-.7-.8-1.8-1.4-2.8-1.8z"/>
  <circle cx="22.8" cy="31.4" r="1.3" fill="#0aa35b"/>
</svg>
