<svg xmlns="http://www.w3.org/2000/svg" viewBox="0 0 500 500" role="img" aria-label="Green Taiwan island flag">
  <rect width="500" height="500" fill="#fff"/>
  <rect x="0" y="88" width="123" height="324" fill="#00a043"/>
  <rect x="377" y="88" width="123" height="324" fill="#00a043"/>
  <path fill="#00a043" d="M285 111c7 8 15 8 22 9 1 9 10 10 12 17-4 5-9 8-11 14 2 8 8 12 7 21-4 21-13 41-17 62-5 25-9 49-20 71-9 18-19 35-32 50-9 10-18 18-22 31 3 15 14 27 14 42-9 3-20-1-23-10-4-14-8-24-18-33-9-9-11-21-16-32-6-13-15-26-22-40-6-12-8-24-6-38 5-34 5-56 7-75 1-10 9-17 15-25 7-8 8-20 13-31 5-13 17-20 25-31 9-14 13-29 25-40 10-10 16-23 30-24 7 0 10 6 17 11z"/>
  <path fill="#00a043" d="M150 249c6-6 12-7 17-2-6 3-11 6-17 2z"/>
  <path fill="#00a043" d="M145 257c3-5 7-6 10-3-3 3-6 5-10 3z"/>
  <path fill="#00a043" d="M286 324c6-4 11-4 15 1-5 3-10 4-15-1z"/>
  <path fill="#00a043" d="M289 368c7-2 12 1 15 7-6 1-11-1-15-7z"/>
</svg>
